<?xml version="1.0" standalone="no"?>
<!DOCTYPE svg PUBLIC "-//W3C//DTD SVG 20010904//EN"
 "http://www.w3.org/TR/2001/REC-SVG-20010904/DTD/svg10.dtd">
<svg version="1.0" xmlns="http://www.w3.org/2000/svg"
 width="96.000000pt" height="96.000000pt" viewBox="0 0 96.000000 96.000000"
 preserveAspectRatio="xMidYMid meet">
<metadata>
Created by potrace 1.14, written by Peter Selinger 2001-2017
</metadata>
<g transform="translate(0.000000,96.000000) scale(0.100000,-0.100000)"
fill="#000000" stroke="none">
<path d="M314 802 c-53 -42 -68 -125 -35 -197 37 -83 118 -86 159 -5 12 24 22
59 22 77 0 102 -85 175 -146 125z"/>
<path d="M554 802 c-71 -56 -71 -188 0 -244 63 -51 146 23 146 130 0 37 -29
96 -59 119 -23 18 -62 15 -87 -5z"/>
<path d="M128 577 c-77 -63 -52 -235 36 -251 69 -13 116 49 112 145 -5 107
-81 162 -148 106z"/>
<path d="M744 591 c-32 -14 -56 -59 -61 -115 -12 -142 119 -210 179 -93 29 58
16 150 -28 194 -17 18 -64 25 -90 14z"/>
<path d="M435 471 c-32 -13 -54 -44 -63 -86 -7 -35 -12 -40 -45 -47 -51 -11
-84 -36 -98 -76 -36 -106 62 -191 171 -147 56 23 102 23 162 0 58 -21 103 -15
140 20 71 66 34 183 -65 202 -38 8 -41 11 -51 53 -17 69 -87 107 -151 81z"/>
</g>
</svg>
